<?xml version="1.0" encoding="UTF-8"?>
<svg id="Camada_1" xmlns="http://www.w3.org/2000/svg" xmlns:xlink="http://www.w3.org/1999/xlink" viewBox="0 0 259.2 259.2">
  <defs>
    <style>
      .cls-1 {
        fill: #fff;
      }

      .cls-2 {
        fill: none;
      }

      .cls-3 {
        fill: url(#Gradiente_sem_nome_13);
        fill-rule: evenodd;
      }

      .cls-4 {
        clip-path: url(#clippath);
      }

      .cls-5 {
        fill: url(#Gradiente_sem_nome_14);
      }
    </style>
    <clipPath id="clippath">
      <rect class="cls-2" x="-539.34" width="1072" height="1067"/>
    </clipPath>
    <linearGradient id="Gradiente_sem_nome_14" data-name="Gradiente sem nome 14" x1="133.13" y1="137.49" x2="144.77" y2="194.99" gradientUnits="userSpaceOnUse">
      <stop offset="0" stop-color="#30155c"/>
      <stop offset=".03" stop-color="#431b63"/>
      <stop offset=".12" stop-color="#6d2975"/>
      <stop offset=".21" stop-color="#913583"/>
      <stop offset=".3" stop-color="#af3e8f"/>
      <stop offset=".4" stop-color="#c64699"/>
      <stop offset=".51" stop-color="#d64b9f"/>
      <stop offset=".63" stop-color="#df4fa3"/>
      <stop offset=".78" stop-color="#e350a5"/>
    </linearGradient>
    <linearGradient id="Gradiente_sem_nome_13" data-name="Gradiente sem nome 13" x1="108.16" y1="77.78" x2="137.32" y2="130.42" gradientUnits="userSpaceOnUse">
      <stop offset="0" stop-color="#30155c"/>
      <stop offset=".23" stop-color="#54216a"/>
      <stop offset=".73" stop-color="#b03f90"/>
      <stop offset="1" stop-color="#e350a5"/>
    </linearGradient>
  </defs>
  <g class="cls-4">
    <rect x=".66" y=".16" width="259.2" height="259.2"/>
    <path class="cls-1" d="M143.1,214.13l-.12-1.6-9.01.69.12,1.6,9.01-.69ZM158.88,210.63c-1.16.39-2.14.45-2.75-.33l4.78-1.62c.01.99-.78,1.53-2.03,1.95ZM157.74,206.96c1.22-.41,2.29-.41,2.84.53l-6.8,2.3c.97,2.87,3.16,3.04,5.56,2.23,2.56-.87,4.04-2.42,3.26-4.74-.78-2.31-2.96-2.62-5.36-1.81-2.33.79-3.64,2.08-3.51,3.82l1.82-.61c.24-.8.93-1.29,2.19-1.72ZM168.83,202.12c1.54-.79,2.6-.76,3.2.4.6,1.18,0,2.06-1.54,2.84-1.54.79-2.61.77-3.22-.41-.6-1.17.02-2.05,1.55-2.84ZM169.88,210.04l-1.56-3.04c.99.34,2.2.17,3.48-.49,1.9-.97,3.11-2.61,1.96-4.87-1.16-2.26-3.19-2.22-5.09-1.25-1.28.65-2.13,1.54-2.43,2.54l-.47-.92-1.72.88,4.12,8.04,1.72-.88ZM179.96,201.33l-3.85-5.42-1.57,1.12,3.85,5.42,1.57-1.12ZM181.34,203.27l-.98-1.37-1.57,1.12.98,1.37,1.57-1.12ZM186.98,190.19c-1.39-1.6-3.4-.3-5.33,1.38-1.94,1.68-3,3.03-1.78,4.45,1.16,1.34,2.54.23,4.63-1.32,1.84-1.37,2.15-1.55,2.43-1.23.25.29-.05.73-1.43,1.93-1.36,1.18-1.97,1.53-2.34,1.11l-1.47,1.27c1.2,1.38,2.79.44,4.68-1.2,1.79-1.55,3.11-3.13,1.97-4.44-1.05-1.21-2.28-.44-4.6,1.34-1.86,1.42-2.12,1.6-2.46,1.22-.34-.39-.17-.72,1.41-2.08,1.63-1.41,2.36-1.69,2.83-1.15l1.46-1.26ZM194.87,188.43c1.06-1.22,1.51-2.56,1.57-3.76l.88.76,1.26-1.46-5.03-4.35-1.26,1.46,2.82,2.44c.14.91-.28,2.4-1.13,3.39-1.04,1.2-1.91,1.08-2.97.16l-2.23-1.93-1.27,1.47,2.77,2.43c1.87,1.59,3.43.75,4.59-.59ZM201.87,179.43l-5.42-3.85-1.12,1.57,5.42,3.85,1.12-1.57ZM203.81,180.81l-1.37-.97-1.12,1.57,1.37.98,1.12-1.57ZM209.9,160.33l-1.46-.66-3.72,8.23,1.46.66,3.72-8.23ZM214.73,144.92c-.21,1.2-.64,2.09-1.62,2.25l.89-4.97c.87.46.96,1.42.73,2.72ZM210.97,144.15c.23-1.27.75-2.21,1.83-2.23l-1.26,7.07c2.98.53,4.19-1.3,4.63-3.79.47-2.66-.17-4.71-2.58-5.14-2.4-.43-3.72,1.33-4.17,3.82-.43,2.42.07,4.19,1.66,4.92l.34-1.89c-.58-.6-.68-1.44-.45-2.75ZM212.24,132.11c.04-1.73.57-2.65,1.88-2.62,1.32.03,1.8.98,1.76,2.71-.04,1.73-.58,2.66-1.9,2.63-1.31-.03-1.79-.99-1.75-2.72ZM219.7,134.97l-3.42-.09c.77-.7,1.2-1.86,1.24-3.29.05-2.13-.8-3.98-3.34-4.05-2.54-.06-3.48,1.74-3.53,3.87-.04,1.43.33,2.61,1.07,3.35l-1.04-.03-.05,1.93,9.03.23.05-1.93ZM217.11,122.24l-6.63.51.15,1.92,6.63-.5-.15-1.93ZM219.49,122.06l-1.68.13.15,1.92,1.68-.13-.15-1.92ZM211.01,110.49c-2.09.37-1.99,2.76-1.54,5.29.45,2.52,1.07,4.13,2.91,3.8,1.74-.31,1.5-2.07,1.23-4.66-.24-2.29-.23-2.64.18-2.72.38-.07.6.42.92,2.22.31,1.77.3,2.48-.24,2.58l.34,1.91c1.8-.32,1.8-2.17,1.36-4.64-.42-2.33-1.1-4.28-2.81-3.97-1.58.28-1.55,1.73-1.2,4.64.27,2.33.29,2.64-.21,2.73-.51.09-.7-.22-1.07-2.27-.38-2.12-.24-2.89.46-3.02l-.34-1.9ZM213.32,102.81c-.52-1.53-1.44-2.6-2.45-3.26l1.1-.37-.62-1.83-6.3,2.13.62,1.83,3.53-1.19c.85.34,1.93,1.45,2.35,2.68.51,1.51-.03,2.19-1.37,2.64l-2.79.94.62,1.84,3.49-1.16c2.31-.81,2.38-2.58,1.81-4.26ZM209,92.24l-6.06,2.74.8,1.76,6.06-2.74-.79-1.76ZM211.17,91.26l-1.53.69.8,1.76,1.53-.69-.8-1.76ZM196.4,75.77l-1.31.93,5.23,7.36,1.31-.93-5.23-7.36ZM185.44,63.98c.92.8,1.47,1.62,1.1,2.54l-3.81-3.3c.84-.51,1.71-.1,2.71.77ZM182.85,66.82c-.97-.84-1.51-1.77-.98-2.71l5.43,4.7c1.98-2.29,1.02-4.27-.89-5.92-2.04-1.77-4.13-2.26-5.74-.41-1.6,1.84-.76,3.88,1.15,5.54,1.86,1.61,3.63,2.08,5.07,1.09l-1.45-1.26c-.81.19-1.59-.15-2.59-1.02ZM173.05,59.71c-1.45-.93-1.97-1.86-1.26-2.97.71-1.11,1.78-1.03,3.23-.1,1.45.93,1.98,1.87,1.27,2.98-.71,1.1-1.78,1.02-3.23.09ZM179.37,54.82l-1.85,2.88c-.2-1.03-.97-1.99-2.17-2.76-1.8-1.15-3.82-1.38-5.2.76-1.37,2.14-.31,3.88,1.48,5.03,1.21.77,2.4,1.07,3.42.82l-.56.87,1.63,1.04,4.87-7.6-1.62-1.04ZM166.75,50.53l-2.74,6.06,1.76.8,2.74-6.06-1.76-.8ZM167.73,48.36l-.69,1.53,1.76.8.69-1.53-1.76-.8ZM153.56,50.12c-.68,2.01,1.46,3.08,3.89,3.9,2.43.82,4.14,1.05,4.74-.72.57-1.68-1.09-2.31-3.49-3.33-2.12-.9-2.43-1.07-2.29-1.47.12-.36.66-.33,2.39.26,1.7.58,2.32.93,2.14,1.45l1.84.62c.59-1.73-1.03-2.63-3.4-3.43-2.25-.76-4.28-1.1-4.83.55-.51,1.52.77,2.19,3.49,3.29,2.17.89,2.45,1.02,2.29,1.5-.17.49-.53.51-2.51-.16-2.04-.69-2.65-1.18-2.42-1.86l-1.83-.62ZM148,44.22c-1.59-.28-2.97,0-4.04.58l.2-1.14-1.9-.34-1.17,6.55,1.9.34.65-3.67c.71-.58,2.21-.99,3.49-.77,1.57.28,1.91,1.09,1.66,2.47l-.52,2.9,1.91.34.67-3.62c.41-2.42-1.11-3.33-2.86-3.64ZM136.65,42.79l-.5,6.63,1.92.15.5-6.63-1.92-.15ZM136.84,40.42l-.13,1.68,1.92.15.13-1.68-1.92-.15ZM116.11,45.68l.2,1.59,8.96-1.14-.2-1.59-8.96,1.14ZM100.36,49.26c1.13-.45,2.11-.55,2.76.2l-4.69,1.85c-.06-.98.71-1.56,1.93-2.05ZM101.67,52.87c-1.2.47-2.27.52-2.86-.39l6.68-2.63c-1.11-2.81-3.31-2.88-5.66-1.96-2.51.99-3.92,2.61-3.02,4.89.89,2.27,3.09,2.47,5.44,1.54,2.29-.9,3.53-2.25,3.32-3.99l-1.78.7c-.2.81-.87,1.34-2.11,1.83ZM90.66,57.88c-1.5.86-2.56.89-3.22-.25-.66-1.15-.1-2.05,1.4-2.91,1.5-.86,2.57-.89,3.23.25.65,1.14.08,2.05-1.41,2.91ZM89.22,50.02l1.71,2.97c-1-.29-2.21-.06-3.45.66-1.85,1.06-2.98,2.76-1.72,4.96,1.27,2.2,3.3,2.06,5.15,1,1.24-.71,2.05-1.64,2.3-2.65l.52.9,1.67-.96-4.5-7.83-1.67.96ZM79.67,58.75l3.85,5.42,1.57-1.12-3.85-5.42-1.57,1.12ZM78.29,56.81l.98,1.37,1.57-1.12-.98-1.37-1.57,1.12ZM72.71,69.98c1.39,1.6,3.4.3,5.33-1.38,1.94-1.68,3-3.03,1.78-4.45-1.16-1.34-2.54-.23-4.63,1.32-1.84,1.37-2.15,1.55-2.43,1.23-.25-.29.05-.73,1.43-1.93,1.36-1.18,1.97-1.53,2.34-1.11l1.47-1.27c-1.2-1.38-2.79-.44-4.68,1.2-1.79,1.55-3.11,3.13-1.97,4.44,1.05,1.21,2.28.44,4.6-1.34,1.86-1.42,2.12-1.6,2.46-1.22.34.39.17.72-1.41,2.08-1.63,1.41-2.36,1.69-2.83,1.15l-1.46,1.26ZM64.94,71.86c-1.06,1.22-1.51,2.56-1.57,3.76l-.88-.76-1.26,1.46,5.03,4.35,1.26-1.46-2.82-2.44c-.14-.91.28-2.4,1.13-3.39,1.04-1.2,1.91-1.08,2.97-.16l2.23,1.93,1.27-1.47-2.77-2.43c-1.87-1.59-3.43-.75-4.59.59ZM58.02,80.93l5.42,3.85,1.12-1.57-5.42-3.85-1.12,1.57ZM56.08,79.55l1.37.97,1.12-1.57-1.37-.98-1.12,1.57ZM50.19,100.14l1.46.66,3.72-8.23-1.46-.66-3.72,8.23ZM45.63,115.63c.21-1.2.64-2.09,1.62-2.25l-.89,4.97c-.87-.46-.96-1.42-.73-2.72ZM49.39,116.4c-.23,1.27-.75,2.21-1.83,2.23l1.26-7.07c-2.98-.53-4.19,1.31-4.63,3.79-.47,2.66.17,4.71,2.58,5.14,2.4.43,3.72-1.33,4.17-3.82.43-2.42-.07-4.19-1.66-4.92l-.34,1.89c.58.6.68,1.44.45,2.75ZM48.28,128.46c-.04,1.73-.57,2.65-1.88,2.62-1.32-.03-1.8-.98-1.76-2.71.04-1.73.58-2.66,1.9-2.63,1.31.03,1.79.99,1.75,2.72ZM40.82,125.59l3.42.09c-.77.7-1.2,1.86-1.24,3.29-.05,2.13.8,3.98,3.34,4.05,2.54.06,3.48-1.74,3.53-3.87.04-1.43-.33-2.61-1.07-3.35l1.04.03.05-1.93-9.03-.23-.05,1.93ZM43.53,138.32l6.63-.51-.15-1.92-6.63.5.15,1.93ZM41.15,138.5l1.68-.13-.15-1.92-1.68.13.15,1.92ZM49.75,150.06c2.09-.37,1.99-2.76,1.54-5.29-.45-2.52-1.07-4.13-2.91-3.8-1.75.31-1.5,2.07-1.23,4.66.24,2.29.23,2.64-.18,2.72-.38.07-.6-.42-.92-2.22-.32-1.77-.3-2.48.24-2.58l-.34-1.91c-1.8.32-1.8,2.17-1.36,4.64.42,2.33,1.1,4.28,2.81,3.97,1.58-.28,1.55-1.73,1.2-4.64-.27-2.33-.29-2.64.21-2.73.51-.09.7.22,1.07,2.27.38,2.12.24,2.89-.46,3.02l.34,1.9ZM47.6,157.69c.52,1.53,1.44,2.6,2.45,3.26l-1.1.37.62,1.83,6.3-2.13-.62-1.83-3.53,1.19c-.85-.34-1.93-1.45-2.35-2.68-.51-1.51.03-2.19,1.37-2.64l2.79-.94-.62-1.84-3.49,1.16c-2.31.81-2.38,2.58-1.81,4.26ZM52.02,168.22l6.06-2.74-.79-1.76-6.06,2.74.79,1.76ZM49.85,169.21l1.53-.69-.8-1.76-1.53.69.8,1.76ZM65.14,184.62l1.26-.99-5.58-7.1-1.26.99,5.58,7.1ZM76.19,196.33c-.96-.75-1.54-1.54-1.22-2.48l3.97,3.12c-.82.55-1.71.18-2.75-.64ZM78.64,193.38c1.01.79,1.59,1.7,1.11,2.66l-5.65-4.44c-1.87,2.38-.82,4.31,1.17,5.87,2.12,1.67,4.24,2.06,5.75.14,1.51-1.92.58-3.91-1.41-5.47-1.94-1.52-3.73-1.91-5.12-.85l1.51,1.19c.8-.23,1.59.07,2.64.9ZM88.55,200.33c1.5.86,2.06,1.77,1.4,2.9-.66,1.15-1.72,1.12-3.22.26-1.5-.86-2.07-1.77-1.41-2.92.65-1.14,1.73-1.1,3.23-.24ZM82.48,205.52l1.71-2.97c.25,1.02,1.06,1.94,2.3,2.65,1.85,1.06,3.89,1.19,5.15-1.01,1.27-2.2.13-3.89-1.72-4.95-1.24-.71-2.45-.95-3.45-.66l.52-.9-1.67-.96-4.5,7.83,1.67.96ZM94.85,209.36l2.74-6.06-1.76-.79-2.74,6.06,1.76.79ZM93.87,211.53l.69-1.53-1.76-.79-.69,1.53,1.76.8ZM108.07,209.67c.68-2.01-1.46-3.08-3.89-3.9-2.43-.82-4.14-1.05-4.74.72-.57,1.68,1.09,2.31,3.49,3.32,2.12.9,2.43,1.07,2.29,1.47-.12.36-.66.33-2.39-.26-1.7-.58-2.32-.93-2.14-1.45l-1.84-.62c-.59,1.73,1.03,2.63,3.4,3.43,2.25.76,4.28,1.1,4.83-.55.51-1.52-.77-2.19-3.49-3.29-2.17-.89-2.45-1.02-2.29-1.5.17-.49.53-.51,2.51.16,2.04.69,2.65,1.18,2.42,1.86l1.83.62ZM113.68,215.41c1.59.28,2.97,0,4.04-.58l-.2,1.14,1.9.34,1.17-6.55-1.9-.34-.65,3.67c-.71.58-2.21.99-3.49.77-1.57-.28-1.91-1.08-1.66-2.47l.52-2.9-1.91-.34-.67,3.62c-.41,2.42,1.11,3.33,2.86,3.64ZM125.04,216.72l.5-6.63-1.92-.15-.5,6.63,1.92.15ZM124.86,219.09l.13-1.68-1.92-.15-.13,1.68,1.92.15Z"/>
  </g>
  <g>
    <ellipse class="cls-5" cx="137.5" cy="159.08" rx="27" ry="25.28"/>
    <path class="cls-3" d="M105.85,86.62h50.04s4.36-.85,5.89,1.79.4,4.35.4,4.35l-37.7,88.46s-5.25-2.4-7-3.9c-4.95-4.26-7.46-10.08-7.91-11.43-.44-1.32-.66-2.36-.75-2.81-1.65-8.14-7.44-57.5-9.07-71.45-.3-1.73.37-3.57,1.96-4.4,2.19-1.15,4.14-.62,4.14-.62Z"/>
  </g>
</svg>