<?xml version="1.0" encoding="UTF-8"?>
<svg id="Camada_1" xmlns="http://www.w3.org/2000/svg" xmlns:xlink="http://www.w3.org/1999/xlink" viewBox="0 0 259.87 259.2">
  <defs>
    <style>
      .cls-1 {
        letter-spacing: .06em;
      }

      .cls-2, .cls-3 {
        fill: #fff;
      }

      .cls-4 {
        letter-spacing: .07em;
      }

      .cls-5 {
        fill: none;
      }

      .cls-6 {
        letter-spacing: .06em;
      }

      .cls-7 {
        fill: url(#Gradiente_sem_nome_13);
        fill-rule: evenodd;
      }

      .cls-3 {
        font-family: Roboto-Regular, Roboto;
        font-size: 6px;
      }

      .cls-8 {
        clip-path: url(#clippath);
      }

      .cls-9 {
        letter-spacing: .06em;
      }

      .cls-10 {
        fill: url(#Gradiente_sem_nome_14);
      }
    </style>
    <clipPath id="clippath">
      <rect class="cls-5" x=".67" width="1072" height="1067"/>
    </clipPath>
    <linearGradient id="Gradiente_sem_nome_14" data-name="Gradiente sem nome 14" x1="65.83" y1="127.65" x2="75" y2="172.96" gradientUnits="userSpaceOnUse">
      <stop offset="0" stop-color="#30155c"/>
      <stop offset=".03" stop-color="#431b63"/>
      <stop offset=".12" stop-color="#6d2975"/>
      <stop offset=".21" stop-color="#913583"/>
      <stop offset=".3" stop-color="#af3e8f"/>
      <stop offset=".4" stop-color="#c64699"/>
      <stop offset=".51" stop-color="#d64b9f"/>
      <stop offset=".63" stop-color="#df4fa3"/>
      <stop offset=".78" stop-color="#e350a5"/>
    </linearGradient>
    <linearGradient id="Gradiente_sem_nome_13" data-name="Gradiente sem nome 13" x1="46.4" y1="80.95" x2="69.31" y2="122.31" gradientUnits="userSpaceOnUse">
      <stop offset="0" stop-color="#30155c"/>
      <stop offset=".23" stop-color="#54216a"/>
      <stop offset=".73" stop-color="#b03f90"/>
      <stop offset="1" stop-color="#e350a5"/>
    </linearGradient>
  </defs>
  <g class="cls-8">
    <rect x=".67" y=".16" width="259.2" height="259.2"/>
    <path class="cls-2" d="M199.56,139.31c2.46,0,4.65.27,6.43,1.02,1.85.78,3.22,2.07,3.92,4.09l.3.85h-21.49l.27-.84c.66-2.03,1.99-3.32,3.86-4.1,1.79-.75,4.06-1.01,6.72-1.01M199.16,155.59c-2.61,0-4.95-.36-6.77-1.27-1.9-.95-3.22-2.47-3.69-4.76l-.16-.77h28.17c-.14-5.31-1.98-8.75-4.9-10.87-3.08-2.23-7.4-3.05-12.21-3.05-5.39,0-9.93,1.03-13.01,3.33-2.74,2.05-4.33,5.15-4.33,9.47s1.61,7.33,4.29,9.38c3.06,2.34,7.53,3.38,12.62,3.38,4.79,0,8.75-.79,11.7-2.4,2.53-1.39,4.31-3.4,5.21-6.06h-6.31c-1,1.29-2.31,2.18-4.01,2.76-1.75.6-3.91.85-6.58.85ZM160.76,155.41c-3.49,0-6.21-.53-8.08-1.73-1.95-1.26-2.97-3.21-2.97-6.01s1.02-4.78,2.97-6.04c1.87-1.21,4.59-1.74,8.08-1.74s6.22.53,8.1,1.74c1.96,1.27,2.99,3.23,2.99,6.04s-1.03,4.75-2.99,6.01c-1.88,1.21-4.61,1.73-8.1,1.73ZM171.85,127.68v12.64l-1.11-1.16c-1.33-1.4-3.08-2.46-5.15-3.18-2.12-.74-4.6-1.11-7.34-1.11-4.34,0-8.34.98-11.07,3.35-2.32,2.02-3.76,5.07-3.76,9.45s1.43,7.42,3.75,9.42c2.74,2.37,6.73,3.34,11.08,3.34,2.74,0,5.22-.38,7.34-1.11,2.08-.72,3.82-1.79,5.15-3.18l1.11-1.16v5.01h6.25v-33.98l-6.25,1.67ZM133.02,135.31v24.68h6.25v-24.68h-6.25ZM132.98,125.73v5.28h6.25v-5.28h-6.25ZM94.29,152.15c.23,3.43,2.32,5.46,5.44,6.65,3.47,1.32,8.22,1.63,13.16,1.63s9.01-.31,11.81-1.5c2.65-1.13,4.17-3.1,4.17-6.45,0-6.09-6.22-6.55-15.45-7.22l-1.01-.07c-4.5-.33-7.11-.57-8.62-.93-1.86-.45-2.29-1.11-2.29-2.26,0-1.08.64-1.8,2.41-2.2,1.45-.33,3.79-.47,7.41-.47s6.03.14,7.66.56c1.59.41,2.43,1.09,2.66,2.13h6.34c-.2-2.87-1.79-4.62-4.35-5.65-2.9-1.18-7.05-1.48-11.87-1.48-4.57,0-8.79.31-11.84,1.44-2.88,1.07-4.71,2.91-4.71,5.98,0,2.82,1.26,4.42,3.81,5.4,2.74,1.05,6.95,1.43,12.6,1.76,4.6.29,7.21.47,8.72.83,1.85.45,2.25,1.16,2.25,2.5s-.42,2.16-2.15,2.66c-1.42.4-3.84.54-7.97.54s-7.17-.28-9.01-.91c-1.8-.62-2.68-1.58-2.87-2.92h-6.28ZM126.54,105.97c-2.92,0-5.58.45-7.94,1.23-2.62.86-4.89,2.12-6.78,3.61l-1.04.82v-3.38l-5.38-1.84v24.68h5.38v-14.14l.16-.18c1.28-1.5,3.44-2.95,5.95-3.99,2.29-.95,4.9-1.57,7.41-1.57,3.3,0,5.48.79,6.84,2.34,1.36,1.54,1.87,3.77,1.87,6.68v10.86h6.3l.08-13.72c-.04-4.55-1.58-7.39-3.92-9.09-2.37-1.72-5.59-2.31-8.93-2.31ZM94.28,106.41v24.68h6.25v-24.68h-6.25ZM94.28,97.11v5.28h6.25v-5.28h-6.25Z"/>
  </g>
  <text class="cls-3" transform="translate(152.01 171.34)"><tspan class="cls-1" x="0" y="0">GRO</tspan><tspan class="cls-9" x="13" y="0">W</tspan><tspan class="cls-1" x="18.54" y="0">TH </tspan><tspan class="cls-4" x="28.87" y="0">M</tspan><tspan class="cls-6" x="34.48" y="0">ARKETING</tspan></text>
  <g>
    <ellipse class="cls-10" cx="69.27" cy="144.66" rx="20.52" ry="19.95"/>
    <path class="cls-7" d="M45.23,87.48h38.02s3.31-.67,4.47,1.42.31,3.44.31,3.44l-28.64,69.81s-3.99-1.89-5.32-3.08c-3.76-3.36-5.67-7.96-6.01-9.02-.33-1.04-.5-1.86-.57-2.22-1.25-6.43-5.65-45.38-6.89-56.38-.23-1.36.28-2.81,1.49-3.48,1.66-.91,3.14-.49,3.14-.49Z"/>
  </g>
</svg>